<svg id="Layer_1" data-name="Layer 1" xmlns="http://www.w3.org/2000/svg" viewBox="0 0 612 792"><defs><style>.cls-1{fill:#eac7c7;}</style></defs><title>01</title><path class="cls-1" d="M513.23,774.76c-10.66-26.93-36.88-66.06-44-68.6-88.37-18.38-113.92,131.16-226.85,18.05-40.4-44.2-62.6-105-80.33-155.38-14.53-38.26-27.71-76.7-39-114.78C77.88,301.74,62.79,155.3,112.59,49.69c11.11-19.17,31.2-28.51,55.77-32.95,12.29-2.22,31,7.76,45.13,12.83C432,174.65,514.34,408.65,533.14,598.07a898.42,898.42,0,0,1,4.44,90.38c0,28.49-.53,55.63.16,81.46C535.63,783.57,528.67,788.15,513.23,774.76Z"/></svg>