<svg id="Layer_1" data-name="Layer 1" xmlns="http://www.w3.org/2000/svg" viewBox="0 0 612 792"><defs><style>.cls-1{fill:#eac7c7;}</style></defs><title>01</title><path class="cls-1" d="M584.87,292.46c-13.42,32.74-30.47,65.45-46.42,98.69-8,16.62-15.67,33.37-22.45,50.17-39.76,83.78-10.14,174.92-10.14,263.78,0,20.51-18.23,43.29-38.73,34.18C394.22,705.1,335,655,264.34,611.69c-18.23-9.11-27.34-31.9-22.78-54.68,13.67-57,41-132.15-18.22-170.93a174.55,174.55,0,0,0-31.75-16.46c-54.27-21.73-114.08-19.2-159.65-61C-4.52,274.47,34.22,228.9,68.4,203.84a172.53,172.53,0,0,1,41-20.51,130.06,130.06,0,0,1,59.24,0c79.75,20.51,157.22,13.67,230-21.44,14.17-5.28,28.34-10.25,42.29-14.16C496.75,132.06,549.16,133.2,585.61,197c4.56,11.39,6.84,22.78,9.14,34.73C594.71,249.84,591.49,270.09,584.87,292.46Z"/></svg>