<svg id="Layer_1" data-name="Layer 1" xmlns="http://www.w3.org/2000/svg" viewBox="0 0 612 792"><defs><style>.cls-1{fill:#eac7c7;}</style></defs><title>01</title><path class="cls-1" d="M157.35,734.88c-25.11,5.06-52.77-11.54-74.9-22.6,71.92-143.85,60.86-309.82,33.2-470.26C99.05,159,126.71-1.42,187.57,9.65c105.12,27.66,71.92,221.3,154.91,304.29,66.39,77.46,110.65-77.46,127.25-143.85,132.78,83,49.79,282.16,5.53,398.34-16.6,44.26-38.73,83-71.92,121.72-16.6,16.6-33.2,22.13-44.26,38.73-38.73,27.66-83,44.26-132.78,44.26-11.07-5.53-22.13-16.6-30.46-19.45C182.35,746.84,169.51,740.62,157.35,734.88Z"/></svg>